<svg id="color_line" height="512" viewBox="0 0 74 74" width="512" xmlns="http://www.w3.org/2000/svg" data-name="color line"><path d="m44.81 56.68h-38.091a3.594 3.594 0 0 1 -3.594-3.594v-38.555a3.594 3.594 0 0 1 3.594-3.593h58.812a3.594 3.594 0 0 1 3.594 3.593v38.555a3.594 3.594 0 0 1 -3.594 3.594h-8.431" fill="#27ccbc"/><path d="m69.12 14.53v38.56a3.6 3.6 0 0 1 -2.93 3.53 3.522 3.522 0 0 0 .06-.66v-38.55a3.593 3.593 0 0 0 -3.59-3.59h-58.82a3.522 3.522 0 0 0 -.66.06 3.6 3.6 0 0 1 3.54-2.94h58.81a3.587 3.587 0 0 1 3.59 3.59z" fill="#21b3a9"/><path d="m40.877 51.238h-26.977a5.08 5.08 0 0 0 -5.091-5.081v-24.694a5.08 5.08 0 0 0 5.091-5.081h44.446a5.078 5.078 0 0 0 5.082 5.081v24.694a5.06 5.06 0 0 0 -1.395.2" fill="#eeefee"/><g fill="#323c6b"><path d="m40.877 51.738h-26.977a.5.5 0 0 1 -.5-.5 4.591 4.591 0 0 0 -4.59-4.581.5.5 0 0 1 -.5-.5v-24.694a.5.5 0 0 1 .5-.5 4.591 4.591 0 0 0 4.59-4.581.5.5 0 0 1 .5-.5h44.447a.5.5 0 0 1 .5.5 4.586 4.586 0 0 0 4.581 4.581.5.5 0 0 1 .5.5v24.694a.5.5 0 0 1 -.5.5 4.538 4.538 0 0 0 -1.258.176.5.5 0 0 1 -.274-.962 5.573 5.573 0 0 1 1.032-.192v-23.738a5.59 5.59 0 0 1 -5.059-5.059h-43.488a5.6 5.6 0 0 1 -5.068 5.059v23.738a5.594 5.594 0 0 1 5.068 5.059h26.5a.5.5 0 1 1 0 1z"/><path d="m49.75 22.854h-27.25a.5.5 0 0 1 0-1h27.25a.5.5 0 0 1 0 1z"/><path d="m55.833 31.271h-39.416a.5.5 0 0 1 0-1h39.416a.5.5 0 0 1 0 1z"/><path d="m37.438 38.021h-21.021a.5.5 0 0 1 0-1h21.021a.5.5 0 0 1 0 1z"/><path d="m35.688 44.771h-19.271a.5.5 0 0 1 0-1h19.271a.5.5 0 0 1 0 1z"/></g><path d="m57.1 55.41v13.42l-6.15-3.71-6.14 3.71v-13.42" fill="#fe7058"/><path d="m57.1 55.41v13.42l-6.15-3.71-6.14 3.71v-2.74l4.03-2.44 6.15 3.71v-11.95z" fill="#ea6453"/><path d="m67.323 60.18h-2.2a.5.5 0 0 1 0-1h2.2a4.307 4.307 0 0 0 4.3-4.3.5.5 0 0 1 1 0 5.307 5.307 0 0 1 -5.3 5.3z" fill="#323c6b"/><path d="m62.563 60.18h-1.157a.5.5 0 0 1 0-1h1.157a.5.5 0 0 1 0 1z" fill="#323c6b"/><path d="m19.917 8.438h-1.125a.5.5 0 1 1 0-1h1.125a.5.5 0 0 1 0 1z" fill="#323c6b"/><path d="m33.25 8.438h-10.583a.5.5 0 1 1 0-1h10.583a.5.5 0 0 1 0 1z" fill="#323c6b"/><circle cx="50.954" cy="45.316" fill="#fcd462" r="11.816"/><path d="m62.77 45.32a11.8 11.8 0 0 1 -5.69 10.1 11.819 11.819 0 0 0 -14.38-18.56 11.817 11.817 0 0 1 20.07 8.46z" fill="#f7be56"/><path d="m50.954 54.443a9.129 9.129 0 1 1 8.981-9.128 9.064 9.064 0 0 1 -8.981 9.128zm0-17.255a8.129 8.129 0 1 0 7.981 8.127 8.063 8.063 0 0 0 -7.981-8.127z" fill="#323c6b"/><path d="m50.954 40.667 1.363 2.809 3.046.45-2.204 2.187.52 3.087-2.725-1.458-2.725 1.458.521-3.087-2.205-2.187 3.047-.45z" fill="#eeefee"/><path d="m53.679 49.7a.513.513 0 0 1 -.237-.059l-2.488-1.332-2.488 1.332a.5.5 0 0 1 -.73-.524l.478-2.832-2.022-2a.5.5 0 0 1 .28-.849l2.785-.412 1.243-2.575a.521.521 0 0 1 .9 0l1.247 2.571 2.786.412a.5.5 0 0 1 .279.849l-2.022 2 .478 2.832a.5.5 0 0 1 -.493.583zm-2.725-2.458a.506.506 0 0 1 .236.059l1.827.977-.352-2.078a.5.5 0 0 1 .141-.438l1.5-1.483-2.059-.3a.5.5 0 0 1 -.377-.277l-.912-1.881-.912 1.881a.5.5 0 0 1 -.377.277l-2.059.3 1.5 1.483a.5.5 0 0 1 .14.438l-.351 2.082 1.826-.977a.506.506 0 0 1 .229-.063z" fill="#323c6b"/><path d="m65.531 57.18h-8.431a.5.5 0 0 1 0-1h8.431a3.1 3.1 0 0 0 3.094-3.094v-38.555a3.1 3.1 0 0 0 -3.094-3.093h-58.812a3.1 3.1 0 0 0 -3.094 3.093v38.555a3.1 3.1 0 0 0 3.094 3.094h38.091a.5.5 0 0 1 0 1h-38.091a4.1 4.1 0 0 1 -4.094-4.094v-38.555a4.1 4.1 0 0 1 4.094-4.093h58.812a4.1 4.1 0 0 1 4.094 4.093v38.555a4.1 4.1 0 0 1 -4.094 4.094z" fill="#323c6b"/><path d="m50.954 57.631a12.316 12.316 0 1 1 12.316-12.316 12.329 12.329 0 0 1 -12.316 12.316zm0-23.631a11.316 11.316 0 1 0 11.316 11.315 11.328 11.328 0 0 0 -11.316-11.315z" fill="#323c6b"/><path d="m57.1 69.33a.5.5 0 0 1 -.258-.072l-5.892-3.558-5.882 3.554a.5.5 0 0 1 -.758-.428v-13.416a.5.5 0 0 1 1 0v12.534l5.381-3.252a.5.5 0 0 1 .517 0l5.392 3.252v-12.534a.5.5 0 0 1 1 0v13.42a.5.5 0 0 1 -.5.5z" fill="#323c6b"/><path d="m5.952 51.752a.65.65 0 0 1 -.652-.652v-.656a.651.651 0 0 1 1.3 0v.656a.65.65 0 0 1 -.648.652z" fill="#fff"/><path d="m5.952 48.482a.65.65 0 0 1 -.651-.65v-8.3a.651.651 0 0 1 1.3 0v8.3a.65.65 0 0 1 -.649.65z" fill="#fff"/></svg>