<?xml version="1.0" standalone="no"?>
<!DOCTYPE svg PUBLIC "-//W3C//DTD SVG 20010904//EN"
 "http://www.w3.org/TR/2001/REC-SVG-20010904/DTD/svg10.dtd">
<svg version="1.0" xmlns="http://www.w3.org/2000/svg"
 width="512.000000pt" height="512.000000pt" viewBox="0 0 512.000000 512.000000"
 preserveAspectRatio="xMidYMid meet">

<g transform="translate(0.000000,512.000000) scale(0.100000,-0.100000)"
fill="#000000" stroke="none">
<path d="M203 5020 c-94 -22 -171 -103 -192 -201 -8 -34 -11 -516 -11 -1504
l0 -1455 170 0 170 0 0 1410 0 1410 2225 0 2225 0 0 -1410 0 -1410 165 0 165
0 0 1455 c0 1009 -3 1470 -11 1505 -16 73 -63 137 -129 174 l-55 31 -2345 2
c-1290 0 -2359 -2 -2377 -7z"/>
<path d="M816 4593 c-14 -14 -6 -53 12 -53 14 0 15 2 2 10 -10 6 -11 10 -2 10
6 0 12 6 12 14 0 17 -14 28 -24 19z"/>
<path d="M964 4565 c1 -25 56 -36 56 -11 0 8 -4 18 -10 21 -6 3 -7 -1 -4 -9 4
-11 0 -16 -14 -16 -11 0 -22 8 -25 18 -3 13 -4 12 -3 -3z"/>
<path d="M915 4569 c-4 -6 -2 -16 5 -22 10 -9 11 -9 6 0 -3 6 -1 13 6 15 9 3
9 6 1 11 -7 4 -15 2 -18 -4z"/>
<path d="M1035 4570 c-3 -5 -1 -10 4 -10 6 0 11 5 11 10 0 6 -2 10 -4 10 -3 0
-8 -4 -11 -10z"/>
<path d="M1062 4560 c0 -14 2 -19 5 -12 2 6 2 18 0 25 -3 6 -5 1 -5 -13z"/>
<path d="M1085 4569 c-5 -8 -4 -10 3 -5 7 4 12 2 12 -3 0 -6 -4 -11 -10 -11
-5 0 -10 -5 -10 -12 0 -8 6 -6 17 5 12 12 14 20 6 28 -8 8 -13 7 -18 -2z"/>
<path d="M3891 4564 c0 -11 3 -14 6 -6 3 7 2 16 -1 19 -3 4 -6 -2 -5 -13z"/>
<path d="M3781 4554 c0 -11 3 -14 6 -6 3 7 2 16 -1 19 -3 4 -6 -2 -5 -13z"/>
<path d="M4342 4170 c-16 -26 -15 -30 3 -30 9 0 15 9 15 25 0 30 -2 31 -18 5z"/>
<path d="M4469 4152 c5 -34 6 -35 9 -8 2 16 0 32 -5 37 -5 5 -7 -7 -4 -29z"/>
<path d="M4220 4161 c0 -26 13 -27 31 -3 7 9 9 14 5 10 -5 -4 -15 -3 -23 3
-10 9 -13 7 -13 -10z"/>
<path d="M4282 4150 c0 -19 2 -27 5 -17 2 9 2 25 0 35 -3 9 -5 1 -5 -18z"/>
<path d="M4161 4154 c0 -11 3 -14 6 -6 3 7 2 16 -1 19 -3 4 -6 -2 -5 -13z"/>
<path d="M4180 4161 c0 -17 18 -21 24 -6 3 9 0 15 -9 15 -8 0 -15 -4 -15 -9z"/>
<path d="M4306 4155 c-3 -8 -1 -15 4 -15 6 0 10 7 10 15 0 8 -2 15 -4 15 -2 0
-6 -7 -10 -15z"/>
<path d="M4380 4163 c8 -3 18 -11 22 -17 5 -7 8 -4 8 7 0 11 -7 17 -22 16 -16
0 -18 -2 -8 -6z"/>
<path d="M4436 4163 c5 -5 12 -12 16 -18 4 -6 8 -2 8 8 0 9 -7 17 -17 17 -9 0
-12 -3 -7 -7z"/>
<path d="M4365 4070 c-7 -12 2 -30 16 -30 5 0 9 9 9 20 0 21 -15 27 -25 10z"/>
<path d="M4162 4020 c0 -14 2 -19 5 -12 2 6 2 18 0 25 -3 6 -5 1 -5 -13z"/>
<path d="M4207 4016 c-4 -10 -5 -21 -2 -24 9 -9 17 6 13 25 -3 17 -4 17 -11
-1z"/>
<path d="M4230 4015 c0 -8 2 -15 4 -15 2 0 6 7 10 15 3 8 1 15 -4 15 -6 0 -10
-7 -10 -15z"/>
<path d="M4266 4021 c-8 -12 3 -41 15 -41 5 0 9 11 9 25 0 25 -14 34 -24 16z"/>
<path d="M4343 4013 c16 -3 25 -9 21 -15 -4 -7 -2 -8 4 -4 22 14 12 26 -20 25
-31 -2 -31 -2 -5 -6z"/>
<path d="M2181 3966 c-17 -20 25 -72 45 -55 15 12 19 55 6 63 -4 2 -8 -8 -7
-22 0 -18 -5 -27 -15 -27 -10 0 -15 10 -15 28 1 31 1 31 -14 13z"/>
<path d="M2200 3950 c0 -5 5 -10 10 -10 6 0 10 5 10 10 0 6 -4 10 -10 10 -5 0
-10 -4 -10 -10z"/>
<path d="M2111 3904 c0 -11 3 -14 6 -6 3 7 2 16 -1 19 -3 4 -6 -2 -5 -13z"/>
<path d="M2280 3902 c-5 -2 -10 -7 -10 -12 0 -12 63 -7 67 5 3 9 -35 14 -57 7z"/>
<path d="M2351 3898 c-1 -10 5 -18 13 -18 17 0 31 18 21 28 -3 3 -10 0 -14 -7
-7 -11 -10 -11 -14 0 -4 10 -6 9 -6 -3z"/>
<path d="M2421 3897 c-17 -17 -13 -31 4 -17 8 7 15 8 15 3 0 -5 7 -10 15 -10
8 0 15 4 15 9 0 5 5 6 10 3 6 -3 10 0 10 7 0 16 -54 20 -69 5z"/>
<path d="M2143 3883 c-7 -2 -9 -12 -6 -21 4 -13 2 -12 -10 3 -13 16 -16 17
-17 4 0 -21 32 -49 57 -49 38 0 72 59 36 61 -10 0 -25 2 -33 3 -8 2 -20 1 -27
-1z m37 -33 c0 -11 -7 -20 -15 -20 -8 0 -15 9 -15 20 0 11 7 20 15 20 8 0 15
-9 15 -20z m30 10 c0 -5 -5 -10 -11 -10 -5 0 -7 5 -4 10 3 6 8 10 11 10 2 0 4
-4 4 -10z"/>
<path d="M3406 3714 c-9 -23 -7 -97 2 -112 7 -9 54 -12 203 -10 l194 3 0 65 0
65 -196 3 c-173 2 -197 0 -203 -14z"/>
<path d="M850 3656 c0 -20 5 -23 35 -22 24 1 34 5 30 14 -2 6 0 12 5 12 6 0
10 -4 10 -10 0 -5 4 -10 9 -10 5 0 7 9 4 20 -4 16 -9 18 -24 9 -10 -5 -19 -7
-19 -3 0 3 -7 1 -15 -6 -12 -10 -15 -10 -15 4 0 9 -4 16 -10 16 -5 0 -10 -11
-10 -24z"/>
<path d="M1177 3660 c-8 -11 -17 -17 -20 -13 -4 3 -7 1 -7 -6 0 -15 46 -7 65
12 13 13 13 16 -1 21 -22 8 -21 8 -37 -14z"/>
<path d="M1312 3662 c-7 -9 -10 -11 -7 -4 4 7 0 12 -10 12 -13 0 -14 -4 -5
-20 6 -11 15 -18 20 -15 4 3 11 -1 13 -7 4 -10 6 -10 6 0 1 7 6 10 11 7 6 -3
10 -1 10 5 0 6 5 8 13 3 24 -15 37 -11 33 10 -2 13 -10 20 -17 18 -31 -8 -44
-8 -49 0 -3 4 -11 0 -18 -9z"/>
<path d="M1250 3651 c0 -14 5 -19 15 -14 17 6 15 25 -3 31 -7 2 -12 -5 -12
-17z"/>
<path d="M2290 3343 c0 -5 22 -6 50 -5 l50 4 0 -41 c0 -35 -3 -41 -22 -43 -40
-2 -62 2 -70 15 -5 8 -8 4 -8 -10 0 -14 -6 -23 -15 -23 -10 0 -15 10 -15 27 0
21 -3 24 -12 15 -8 -8 -8 -18 -2 -33 7 -14 7 -44 1 -81 -13 -89 -13 -89 95
-86 l93 3 2 118 c2 108 1 117 -16 117 -10 0 -21 7 -25 15 -4 11 -20 15 -56 15
-27 0 -50 -3 -50 -7z m140 -68 c0 -29 -4 -35 -21 -35 -15 0 -19 4 -15 16 3 9
6 24 6 35 0 10 7 19 15 19 10 0 15 -11 15 -35z m-105 -77 c0 -35 -18 -63 -35
-53 -5 3 -10 24 -10 46 0 34 3 39 23 39 18 0 22 -5 22 -32z m80 -8 c-1 -22 -5
-43 -8 -47 -13 -13 -37 21 -37 53 0 29 3 34 24 34 21 0 23 -4 21 -40z m-55 0
c0 -5 -2 -10 -4 -10 -3 0 -8 5 -11 10 -3 6 -1 10 4 10 6 0 11 -4 11 -10z m80
-52 c0 -18 -2 -20 -9 -8 -6 8 -7 18 -5 22 9 14 14 9 14 -14z m-103 -10 c-3 -8
-6 -5 -6 6 -1 11 2 17 5 13 3 -3 4 -12 1 -19z m43 1 c0 -6 -4 -7 -10 -4 -5 3
-10 11 -10 16 0 6 5 7 10 4 6 -3 10 -11 10 -16z"/>
<path d="M2323 3323 c9 -2 25 -2 35 0 9 3 1 5 -18 5 -19 0 -27 -2 -17 -5z"/>
<path d="M2250 3310 c0 -5 7 -7 16 -3 9 3 20 0 25 -8 7 -11 9 -11 9 4 0 12 -8
17 -25 17 -14 0 -25 -4 -25 -10z"/>
<path d="M2318 3283 c7 -3 16 -2 19 1 4 3 -2 6 -13 5 -11 0 -14 -3 -6 -6z"/>
<path d="M1253 3234 c-41 -24 -60 -53 -28 -40 11 4 15 -2 15 -28 0 -45 33 -74
89 -77 42 -3 43 -3 57 36 19 55 17 78 -7 109 -27 34 -70 34 -126 0z m44 -70
c-9 -9 -28 6 -21 18 4 6 10 6 17 -1 6 -6 8 -13 4 -17z m33 11 c0 -8 -4 -15
-10 -15 -5 0 -10 7 -10 15 0 8 5 15 10 15 6 0 10 -7 10 -15z m30 0 c0 -8 -4
-15 -10 -15 -5 0 -10 7 -10 15 0 8 5 15 10 15 6 0 10 -7 10 -15z"/>
<path d="M1090 3001 c10 -7 11 -11 3 -11 -7 0 -13 -4 -13 -10 0 -5 7 -7 15 -3
19 7 15 25 -6 31 -11 3 -11 2 1 -7z"/>
<path d="M1140 2986 c0 -14 5 -26 11 -26 5 0 7 6 3 13 -5 8 -2 8 9 -2 15 -12
17 -10 16 15 0 16 -3 23 -6 16 -4 -10 -8 -10 -19 -1 -11 9 -14 7 -14 -15z"/>
<path d="M1243 2994 c-3 -8 2 -23 11 -32 9 -9 16 -11 16 -5 0 6 -6 13 -12 16
-10 3 -10 7 1 20 9 12 10 17 2 17 -6 0 -14 -7 -18 -16z"/>
<path d="M1280 2986 c0 -31 6 -34 13 -6 3 11 1 23 -4 26 -5 3 -9 -6 -9 -20z"/>
<path d="M1340 3002 c0 -6 -7 -9 -15 -6 -20 8 -32 -25 -14 -37 8 -5 15 -4 17
1 2 5 9 7 16 4 8 -3 12 3 11 15 -1 22 -15 42 -15 23z"/>
<path d="M1380 2984 c0 -24 2 -25 17 -13 9 8 14 9 10 3 -4 -7 0 -15 9 -18 12
-5 15 -2 10 11 -6 15 -5 16 11 1 21 -18 43 -13 44 10 0 14 2 13 9 -3 l9 -20 1
20 1 20 10 -20 9 -20 -3 20 c-2 18 -10 20 -64 20 -33 0 -59 3 -56 8 2 4 -1 7
-6 7 -6 0 -11 -12 -11 -26z"/>
<path d="M2200 2979 c0 -38 24 -35 28 4 2 19 -1 27 -12 27 -11 0 -16 -10 -16
-31z m17 -1 c-3 -8 -6 -5 -6 6 -1 11 2 17 5 13 3 -3 4 -12 1 -19z"/>
<path d="M2389 2990 c-1 -17 -3 -20 -6 -7 -3 12 -13 17 -34 15 -16 -1 -29 -5
-29 -9 0 -4 -3 -16 -6 -26 -5 -16 -4 -16 10 1 12 14 16 16 16 5 0 -11 15 -14
72 -13 67 1 73 3 74 23 2 25 -13 28 -19 4 -4 -15 -5 -15 -6 -2 -1 10 -10 17
-25 17 -18 0 -23 -5 -20 -17 3 -9 -2 -5 -10 9 l-15 25 -2 -25z"/>
<path d="M3495 3000 c-11 -4 -24 -5 -29 -2 -4 2 -12 -2 -17 -9 -6 -10 -9 -11
-9 -1 0 6 -9 12 -20 12 -13 0 -20 -7 -20 -20 0 -11 5 -20 10 -20 6 0 10 6 10
13 0 8 4 7 10 -3 5 -8 10 -10 10 -5 0 6 5 3 10 -5 8 -13 11 -12 25 5 13 18 16
18 28 5 18 -22 42 -19 43 7 1 24 -21 34 -51 23z"/>
<path d="M1203 2993 c-17 -6 -16 -30 1 -36 10 -4 13 2 12 19 0 13 -1 24 -1 23
0 0 -6 -3 -12 -6z"/>
<path d="M2253 2993 c-7 -3 -13 -12 -13 -21 0 -15 2 -15 10 -2 8 12 10 12 11
-5 0 -11 3 -14 6 -7 4 9 8 10 18 2 10 -8 13 -5 11 15 -1 25 -16 36 -16 13 0
-9 -3 -10 -8 -2 -4 6 -13 9 -19 7z"/>
<path d="M3238 2983 c-4 -13 2 -18 19 -19 17 -2 23 3 22 20 0 20 -1 20 -9 1
-7 -17 -9 -17 -9 -2 -1 9 -5 17 -10 17 -5 0 -11 -8 -13 -17z"/>
<path d="M3291 2983 c-1 -28 24 -31 51 -6 11 9 18 11 18 5 0 -7 -5 -12 -11
-12 -5 0 -7 -5 -3 -12 5 -8 11 -6 20 6 9 13 13 14 17 4 3 -7 6 -3 6 9 1 20 -4
23 -39 21 -21 -1 -37 -5 -34 -9 2 -4 0 -10 -5 -13 -5 -4 -12 2 -14 11 -4 14
-5 13 -6 -4z"/>
<path d="M1110 2959 c0 -5 5 -7 10 -4 6 3 10 8 10 11 0 2 -4 4 -10 4 -5 0 -10
-5 -10 -11z"/>
<path d="M1285 2620 c-4 -6 -11 -8 -16 -5 -5 4 -9 2 -9 -3 0 -11 36 -23 44
-14 10 9 7 32 -3 32 -6 0 -13 -5 -16 -10z"/>
<path d="M1366 2575 c-9 -24 -8 -25 15 -25 14 0 19 5 17 17 -4 23 -24 27 -32
8z"/>
<path d="M1280 2540 c0 -5 9 -10 20 -10 11 0 20 5 20 10 0 6 -9 10 -20 10 -11
0 -20 -4 -20 -10z"/>
<path d="M1285 2490 c3 -5 13 -10 21 -10 8 0 14 5 14 10 0 6 -9 10 -21 10 -11
0 -17 -4 -14 -10z"/>
<path d="M1288 2443 c6 -2 18 -2 25 0 6 3 1 5 -13 5 -14 0 -19 -2 -12 -5z"/>
<path d="M1236 2263 c9 -38 11 -39 16 -3 3 21 0 30 -9 30 -10 0 -11 -8 -7 -27z"/>
<path d="M1304 2255 c-11 -22 -9 -23 22 -23 27 0 34 4 34 19 0 10 -5 19 -11
19 -6 0 -9 -7 -5 -15 3 -8 1 -15 -4 -15 -6 0 -10 6 -10 14 0 25 -15 25 -26 1z"/>
<path d="M1260 2250 c0 -11 5 -20 10 -20 6 0 10 9 10 20 0 11 -4 20 -10 20 -5
0 -10 -9 -10 -20z"/>
<path d="M3113 1853 c307 -2 807 -2 1110 0 304 1 53 2 -558 2 -610 0 -859 -1
-552 -2z"/>
</g>
</svg>
