<svg id="color_line" height="512" viewBox="0 0 74 74" width="512" xmlns="http://www.w3.org/2000/svg" data-name="color line"><path d="m61.741 67.5h-49.48a3.292 3.292 0 0 1 -3.292-3.3v-6.382h56.064v6.382a3.292 3.292 0 0 1 -3.292 3.3z" fill="#27CCBC"/><path d="m65.03 57.82v6.38a3.3 3.3 0 0 1 -3.29 3.3h-3.79a3.3 3.3 0 0 0 3.29-3.3v-6.38z" fill="#27CCBC"/><path d="m65.034 57.818h-56.068c1.3-11.6 4.636-19.667 12.993-26.066v-7.322h7.271v6.533h15.54v-6.533h7.271v7.322c8.359 6.399 11.696 14.467 12.993 26.066z" fill="#fe7058"/><path d="m65.03 57.82h-3.58c-1.3-11.6-4.63-19.67-12.99-26.07v-7.32h3.58v7.32c8.36 6.4 11.7 14.47 12.99 26.07z" fill="#ea6453"/><g fill="#323c6b"><path d="m30.672 37.25h-2.884a.5.5 0 1 1 0-1h2.884a.5.5 0 0 1 0 1z"/><path d="m38.441 37.25h-2.882a.5.5 0 0 1 0-1h2.882a.5.5 0 0 1 0 1z"/><path d="m46.212 37.25h-2.884a.5.5 0 0 1 0-1h2.884a.5.5 0 0 1 0 1z"/><path d="m30.672 42.329h-2.884a.5.5 0 0 1 0-1h2.884a.5.5 0 1 1 0 1z"/><path d="m38.441 42.329h-2.882a.5.5 0 0 1 0-1h2.882a.5.5 0 0 1 0 1z"/><path d="m46.212 42.329h-2.884a.5.5 0 0 1 0-1h2.884a.5.5 0 0 1 0 1z"/><path d="m30.672 47.407h-2.884a.5.5 0 1 1 0-1h2.884a.5.5 0 0 1 0 1z"/><path d="m38.441 47.407h-2.882a.5.5 0 0 1 0-1h2.882a.5.5 0 0 1 0 1z"/><path d="m46.212 47.407h-2.884a.5.5 0 0 1 0-1h2.884a.5.5 0 0 1 0 1z"/><path d="m30.672 52.485h-2.884a.5.5 0 1 1 0-1h2.884a.5.5 0 0 1 0 1z"/><path d="m38.441 52.485h-2.882a.5.5 0 0 1 0-1h2.882a.5.5 0 0 1 0 1z"/><path d="m46.212 52.485h-2.884a.5.5 0 0 1 0-1h2.884a.5.5 0 0 1 0 1z"/></g><path d="m63.518 10.989c-6.918-3.946-16.808-5.489-26.518-5.489s-19.6 1.543-26.518 5.489c-4.949 2.659-7.125 8.79-7.436 13.441h15.523v-1.24a3.383 3.383 0 0 1 3.386-3.377h30.09a3.383 3.383 0 0 1 3.386 3.377v1.24h15.523c-.311-4.651-2.487-10.782-7.436-13.441z" fill="#fe7058"/><path d="m3.159 27.667a1.863 1.863 0 0 0 1.841 1.548h11.722a1.845 1.845 0 0 0 1.847-1.847v-2.938h-15.523a14.27 14.27 0 0 0 .113 3.237z" fill="#27CCBC"/><path d="m16.722 29.715h-11.722a2.367 2.367 0 0 1 -2.33-1.961 14.826 14.826 0 0 1 -.122-3.354.5.5 0 0 1 .5-.466h15.52a.5.5 0 0 1 .5.5v2.938a2.348 2.348 0 0 1 -2.346 2.343zm-13.071-2.133a1.37 1.37 0 0 0 1.349 1.133h11.722a1.348 1.348 0 0 0 1.346-1.347v-2.438h-14.547a13.046 13.046 0 0 0 .13 2.652z" fill="#323c6b"/><path d="m70.954 24.43h-15.523v2.938a1.845 1.845 0 0 0 1.847 1.847h11.722a1.863 1.863 0 0 0 1.838-1.548 14.27 14.27 0 0 0 .116-3.237z" fill="#27CCBC"/><path d="m70.95 24.43h-3.24c-.7-4.33-2.91-9.3-7.24-11.63-6.92-3.95-16.81-5.5-26.52-5.49-9.05-.01-18.25 1.34-25.06 4.72a10.124 10.124 0 0 1 1.59-1.04c6.92-3.95 16.81-5.49 26.52-5.49s19.6 1.54 26.52 5.49c4.95 2.66 7.12 8.79 7.43 13.44z" fill="#ea6453"/><path d="m71.132 27.67a1.868 1.868 0 0 1 -1.84 1.55h-3.63a1.868 1.868 0 0 0 1.84-1.55 14.017 14.017 0 0 0 .11-3.24h3.63a14.017 14.017 0 0 1 -.11 3.24z" fill="#27CCBC"/><path d="m12.261 71a6.764 6.764 0 0 1 -6.612-5.258.5.5 0 0 1 .975-.226 5.766 5.766 0 0 0 5.637 4.484.5.5 0 0 1 0 1z" fill="#323c6b"/><path d="m5.969 63.875a.5.5 0 0 1 -.5-.5v-.875a.5.5 0 0 1 1 0v.875a.5.5 0 0 1 -.5.5z" fill="#323c6b"/><path d="m53.823 4.726a.48.48 0 0 1 -.111-.013c-.29-.066-.58-.125-.871-.183l-.368-.075a.5.5 0 1 1 .2-.979l.364.074c.3.06.6.12.9.188a.5.5 0 0 1 -.112.988z" fill="#323c6b"/><path d="m65 8.882a.505.505 0 0 1 -.248-.065 37.847 37.847 0 0 0 -8.236-3.383.5.5 0 1 1 .277-.961 38.919 38.919 0 0 1 8.455 3.475.5.5 0 0 1 -.248.934z" fill="#323c6b"/><path d="m70.953 24.93h-15.521a.5.5 0 0 1 -.5-.5v-1.241a2.885 2.885 0 0 0 -2.887-2.876h-30.091a2.885 2.885 0 0 0 -2.886 2.876v1.241a.5.5 0 0 1 -.5.5h-15.521a.5.5 0 0 1 -.5-.533c.31-4.647 2.513-11.062 7.7-13.849 6.267-3.573 15.739-5.548 26.667-5.548h.173c10.924 0 20.393 1.97 26.674 5.547 5.18 2.789 7.381 9.2 7.691 13.846a.5.5 0 0 1 -.5.533zm-15.021-1h14.479c-.419-4.336-2.5-10.011-7.129-12.5l-.011-.006c-6.131-3.496-15.428-5.424-26.184-5.424h-.173c-10.758 0-20.054 1.928-26.185 5.423-4.643 2.5-6.721 8.171-7.14 12.507h14.479v-.741a3.886 3.886 0 0 1 3.886-3.876h30.091a3.886 3.886 0 0 1 3.887 3.876z" fill="#323c6b"/><path d="m69 29.715h-11.722a2.348 2.348 0 0 1 -2.346-2.347v-2.938a.5.5 0 0 1 .5-.5h15.521a.5.5 0 0 1 .5.466 14.826 14.826 0 0 1 -.118 3.354 2.369 2.369 0 0 1 -2.335 1.965zm-13.068-4.785v2.438a1.348 1.348 0 0 0 1.346 1.347h11.722a1.37 1.37 0 0 0 1.346-1.135 13.01 13.01 0 0 0 .13-2.65z" fill="#323c6b"/><path d="m65.034 58.318h-56.068a.5.5 0 0 1 -.5-.555c1.408-12.563 5.177-20.195 12.993-26.257v-7.076a.5.5 0 0 1 .5-.5h7.271a.5.5 0 0 1 .5.5v6.032h14.54v-6.032a.5.5 0 0 1 .5-.5h7.271a.5.5 0 0 1 .5.5v7.076c7.816 6.062 11.585 13.69 12.99 26.257a.5.5 0 0 1 -.5.555zm-55.508-1h54.948c-1.432-12.038-5.145-19.356-12.737-25.169a.5.5 0 0 1 -.2-.4v-6.819h-6.267v6.032a.5.5 0 0 1 -.5.5h-15.54a.5.5 0 0 1 -.5-.5v-6.032h-6.271v6.822a.5.5 0 0 1 -.2.4c-7.588 5.81-11.301 13.128-12.733 25.166z" fill="#323c6b"/><path d="m61.741 68h-49.48a3.8 3.8 0 0 1 -3.792-3.8v-6.382a.5.5 0 0 1 .5-.5h56.063a.5.5 0 0 1 .5.5v6.382a3.8 3.8 0 0 1 -3.791 3.8zm-52.272-9.682v5.882a2.8 2.8 0 0 0 2.792 2.8h49.48a2.8 2.8 0 0 0 2.791-2.8v-5.882z" fill="#323c6b"/><path d="m54.936 60.822a.708.708 0 0 1 .736-.676h.366a.692.692 0 0 1 .707.715 1.12 1.12 0 0 1 -.021.173.793.793 0 0 1 -.716.586h-.365a.776.776 0 0 1 -.707-.798z" fill="#fff"/><path d="m44.123 60.878a.741.741 0 0 1 .746-.728h8.263a.73.73 0 0 1 .7.748.875.875 0 0 1 -.03.163.751.751 0 0 1 -.726.563h-8.263a.713.713 0 0 1 -.69-.746z" fill="#fff"/></svg>